<svg width="84" height="87" viewBox="0 0 84 87" fill="none" xmlns="http://www.w3.org/2000/svg">
<g clip-path="url(#clip0_4476_2948)">
<path d="M44.6111 1.13232L47.0356 3.58568C49.0871 5.66161 52.0711 6.41649 54.6821 5.28417L57.8526 4.15184C59.7176 3.39696 61.7692 4.52928 62.3287 6.41649L63.4477 9.81345C64.3802 12.6443 66.8047 14.5315 69.6022 14.9089L72.9592 15.2863C75.0107 15.4751 76.3162 17.3623 76.1297 19.2495L75.7567 22.6464C75.3837 25.4772 76.6892 28.308 79.1137 29.8178L82.0978 31.705C83.7763 32.8373 84.3358 34.9132 83.2168 36.6117L81.3518 39.6312C79.8597 42.0846 79.8597 45.2928 81.3518 47.7462L83.2168 50.7657C84.3358 52.4642 83.7763 54.7289 82.0978 55.6725L79.1137 57.5597C76.6892 59.0694 75.3837 61.9002 75.7567 64.731L76.1297 68.128C76.3162 70.2039 75.0107 71.9024 72.9592 72.0911L69.6022 72.4686C66.8047 72.846 64.3802 74.7332 63.4477 77.564L62.3287 80.961C61.7692 82.8482 59.7176 83.7918 57.8526 83.2256L54.6821 82.0933C52.0711 81.1497 48.9006 81.7158 47.0356 83.7918L44.6111 86.2451C43.3056 87.7549 40.8811 87.7549 39.5756 86.2451L37.151 83.7918C35.0995 81.7158 32.1155 80.961 29.5045 82.0933L26.334 83.2256C24.469 83.9805 22.4175 82.8482 21.858 80.961L20.739 77.564C19.8065 74.7332 17.3819 72.846 14.5844 72.4686L11.2274 72.0911C9.17591 71.9024 7.8704 70.0152 8.0569 68.128L8.4299 64.731C8.80291 61.9002 7.4974 59.0694 5.07289 57.5597L2.08887 55.6725C0.410365 54.5401 -0.149137 52.4642 0.969868 50.7657L2.83488 47.7462C4.32688 45.2928 4.32688 42.0846 2.83488 39.6312L0.969868 36.6117C-0.149137 34.9132 0.410365 32.6486 2.08887 31.705L5.07289 29.8178C7.4974 28.308 8.80291 25.4772 8.4299 22.6464L8.0569 19.2495C7.8704 17.1735 9.17591 15.4751 11.2274 15.2863L14.5844 14.9089C17.3819 14.5315 19.8065 12.6443 20.739 9.81345L21.858 6.41649C22.4175 4.52928 24.469 3.58568 26.334 4.15184L29.5045 5.28417C32.1155 6.22777 35.286 5.66161 37.151 3.58568L39.5756 1.13232C40.8811 -0.37744 43.3056 -0.37744 44.6111 1.13232Z" fill="#0049B2"/>
<path d="M42 75.8333C60.0252 75.8333 74.6376 61.0471 74.6376 42.8073C74.6376 24.5675 60.0252 9.78125 42 9.78125C23.9747 9.78125 9.3623 24.5675 9.3623 42.8073C9.3623 61.0471 23.9747 75.8333 42 75.8333Z" fill="#C1D3E9"/>
<path d="M52.2576 16.0093C52.2576 16.0093 53.1901 14.8769 53.9361 15.0657C63.4476 18.8401 70.7212 27.5212 72.5862 38.467C72.5862 39.5993 72.0267 40.7316 70.9077 40.9203C69.9752 40.9203 69.0426 40.5429 68.6696 39.5993C68.6696 39.5993 68.6696 38.8444 68.6696 38.6557C66.9911 29.2197 61.0231 21.4821 53.1901 17.1416C52.8171 16.9529 52.4441 16.3867 52.6306 15.8205L52.2576 16.0093Z" fill="white"/>
<path d="M25.9611 42.2412C25.9611 42.2412 26.5206 42.4299 26.5206 42.6186C27.0801 43.9397 25.5881 46.0156 26.5206 47.3367C27.0801 48.2803 29.5046 49.79 30.4371 50.3562C37.5241 54.3193 46.4762 54.3193 53.5632 50.3562C54.4957 49.79 57.1067 48.0915 57.6662 47.1479C58.4122 45.8269 56.7337 42.9961 57.6662 42.0525C58.4122 41.4863 58.4122 42.9961 58.5987 43.3735C58.9717 44.6946 60.4637 46.2043 62.1422 46.0156C62.5152 46.0156 63.4478 45.4495 63.6343 46.0156C64.0073 46.9592 62.8882 47.3367 62.3287 47.3367C61.5827 47.3367 61.0232 47.3367 60.2772 47.3367C58.7852 47.3367 57.6662 48.8464 56.3607 49.79C48.3412 56.0178 35.6591 56.0178 27.6396 49.79C26.5206 48.8464 25.4016 47.5254 23.7231 47.3367C23.1636 47.3367 22.6041 47.3367 21.858 47.3367C21.112 47.3367 19.8065 46.7705 20.366 45.8269C20.739 45.2607 21.485 45.8269 21.858 45.8269C23.3501 45.8269 24.8421 44.5059 25.4016 43.1848C25.4016 42.8074 25.4016 41.8638 25.9611 41.8638V42.2412Z" fill="#0049B2"/>
<path d="M33.7939 34.1264C35.0299 34.1264 36.0319 32.0986 36.0319 29.5972C36.0319 27.0957 35.0299 25.0679 33.7939 25.0679C32.5579 25.0679 31.5559 27.0957 31.5559 29.5972C31.5559 32.0986 32.5579 34.1264 33.7939 34.1264Z" fill="#0049B2"/>
<path d="M50.206 34.1264C51.442 34.1264 52.444 32.0986 52.444 29.5972C52.444 27.0957 51.442 25.0679 50.206 25.0679C48.97 25.0679 47.968 27.0957 47.968 29.5972C47.968 32.0986 48.97 34.1264 50.206 34.1264Z" fill="#0049B2"/>
</g>
<defs>
<clipPath id="clip0_4476_2948">
<rect width="84" height="87" fill="white"/>
</clipPath>
</defs>
</svg>
