<svg width="85" height="87" viewBox="0 0 85 87" fill="none" xmlns="http://www.w3.org/2000/svg">
<path d="M58.4302 28.4304C68.7772 38.6839 74.0712 50.2931 70.2979 54.8083C70.2979 54.8083 70.1848 55.1325 69.9646 55.2386C69.9646 55.2386 69.6879 55.5068 69.4677 55.6129L25.759 86.3826C23.545 88.5282 16.1918 84.9238 9.25805 78.0154C2.32435 71.1071 -1.59485 63.96 0.619146 61.8144L30.7818 17.8823C30.7818 17.8823 30.8949 17.5582 31.1151 17.452C31.1151 17.452 31.2281 17.1278 31.4484 17.0217C36.0341 13.3288 47.863 18.2831 58.2665 28.3744L58.4302 28.4304Z" fill="#CCE4FF"/>
<path d="M40.8759 46.1937C48.9493 54.0364 52.4608 63.4027 49.0208 67.4876C49.0208 67.4876 48.9077 67.8118 48.7441 67.7558C48.7441 67.7558 48.4673 68.0241 48.2471 68.1302L26.3928 83.515C25.8809 80.2553 22.4349 74.9031 17.2331 69.8574C12.195 64.8678 6.7552 61.5551 3.47584 60.9774L18.6107 39.1205C18.6107 39.1205 18.7238 38.7963 18.944 38.6902C18.944 38.6902 19.0571 38.366 19.2208 38.422C23.3661 34.9412 32.8024 38.3511 40.9324 46.0316L40.8759 46.1937Z" fill="#0056D0"/>
<path d="M41.495 69.6304C41.495 69.6304 43.2954 70.2464 44.0125 69.766L65.477 54.9735C66.9114 54.0127 67.0423 52.0616 65.7954 50.9093C64.5485 49.7569 62.3583 49.7333 61.0877 50.7501L41.5753 67.2991C41.5753 67.2991 41.0099 68.9201 41.5515 69.4683L41.495 69.6304Z" fill="#EFF2F2"/>
<path d="M58.5016 11.9433C57.6327 11.2831 56.6506 10.9472 55.5555 10.9354C54.4604 10.9236 53.523 11.5101 52.6928 12.3147C51.8625 13.1193 51.687 14.1479 51.6751 15.2325C51.6632 16.3171 52.2554 17.2455 53.0678 18.0678L56.865 21.3628L62.2422 15.4004L58.4451 12.1054L58.5016 11.9433Z" fill="#CCE4FF"/>
<path d="M62.8405 15.7863L66.6376 19.0813C68.319 20.5638 68.566 23.0071 67.0692 24.6723C65.5723 26.3375 63.1054 26.5821 61.424 25.0997L57.6269 21.8047L63.0041 15.8423L62.8405 15.7863ZM65.2569 25.1409C65.2569 25.1409 65.5336 24.8727 65.4265 24.6546C65.4265 24.6546 65.3194 24.4365 65.0992 24.5426C63.6708 24.9611 62.1977 24.4572 61.0015 23.685L60.8884 24.0092C61.9716 25.1056 63.772 25.7215 65.4206 25.1969L65.2569 25.1409Z" fill="#CCE4FF"/>
<path d="M69.5867 24.8081C69.5867 24.8081 67.9827 26.2552 67.8071 27.2838C67.6316 28.3124 67.7833 29.453 68.3755 30.3814C68.9677 31.3098 69.8367 31.97 70.8752 32.1438C71.8573 32.4798 73.0654 32.1674 74.0028 31.5809L78.2493 28.8605L73.9968 22.1438L69.7503 24.8641L69.5867 24.8081Z" fill="#CCE4FF"/>
<path d="M74.4937 21.7695L78.7401 19.0491C80.6149 17.8761 83.183 18.3919 84.3674 20.2486C85.5518 22.1054 85.0311 24.6489 83.1563 25.8219L78.9098 28.5423L74.6573 21.8255L74.4937 21.7695ZM84.2365 22.1997C84.2365 22.1997 84.1859 21.8195 83.9657 21.9256C83.9657 21.9256 83.7455 22.0317 83.689 22.1938C83.564 23.6026 82.7278 24.9495 81.6773 25.8602C81.6773 25.8602 81.7845 26.0783 82.0047 25.9722C83.3825 25.1735 84.4389 23.7205 84.4567 22.0936L84.2365 22.1997Z" fill="#CCE4FF"/>
<path d="M67.2951 14.0447C67.1196 15.0733 67.4915 16.1078 68.0837 17.0362C68.6759 17.9645 69.6014 18.4626 70.64 18.6365C71.6785 18.8104 72.723 18.442 73.6604 17.8555C74.5978 17.269 75.1007 16.3524 75.2763 15.3238L76.0976 10.3429L68.0599 9.22592L67.2386 14.2068L67.2951 14.0447Z" fill="#CCE4FF"/>
<path d="M68.1789 8.35943L69.0002 3.37855C69.4079 1.15926 71.3957 -0.337956 73.6365 0.0658045C75.8773 0.469565 77.389 2.43833 76.9813 4.65762L76.1601 9.63849L68.1224 8.52153L68.1789 8.35943ZM74.8268 1.38028L74.4995 1.26828L74.3864 1.59248C75.4696 2.68885 75.8922 4.10354 75.7672 5.51233C75.7672 5.51233 76.0946 5.62432 76.1511 5.46222C76.4963 3.94733 76.0231 2.15245 74.7762 1.00008L74.8268 1.38028Z" fill="#CCE4FF"/>
</svg>
