<svg width="106" height="87" viewBox="0 0 106 87" fill="none" xmlns="http://www.w3.org/2000/svg">
<path d="M8.0168 25.7851L8.68001 22.5069C9.01423 20.8541 10.3054 19.5629 11.9582 19.2287L15.2364 18.5655C15.4741 18.5172 15.4741 18.1777 15.2364 18.1294L11.9582 17.4662C10.3054 17.132 9.01423 15.8408 8.68001 14.188L8.0168 10.9098C7.9685 10.6722 7.62905 10.6722 7.58075 10.9098L6.91753 14.188C6.58331 15.8408 5.29213 17.132 3.63931 17.4662L0.361099 18.1294C0.123489 18.1777 0.123489 18.5172 0.361099 18.5655L3.63931 19.2287C5.29213 19.5629 6.58331 20.8541 6.91753 22.5069L7.58075 25.7851C7.62905 26.0227 7.9685 26.0227 8.0168 25.7851Z" fill="#0056D0"/>
<path d="M94.1799 86.72L95.2231 81.5631C95.7492 78.9637 97.7806 76.9323 100.38 76.4062L105.537 75.3631C105.91 75.2873 105.91 74.7534 105.537 74.6776L100.38 73.6345C97.7806 73.1084 95.7492 71.077 95.2231 68.4776L94.1799 63.3207C94.1042 62.9473 93.5703 62.9473 93.4945 63.3207L92.4514 68.4776C91.9253 71.077 89.8939 73.1084 87.2945 73.6345L82.1376 74.6776C81.7642 74.7534 81.7642 75.2873 82.1376 75.3631L87.2945 76.4062C89.8939 76.9323 91.9253 78.9637 92.4514 81.5631L93.4945 86.72C93.5703 87.0933 94.1042 87.0933 94.1799 86.72Z" fill="#0056D0"/>
<path d="M74.8919 11.4333L75.3958 8.94361C75.6491 7.68899 76.6309 6.70853 77.8855 6.45395L80.3751 5.95001C80.5553 5.91345 80.5553 5.65495 80.3751 5.6184L77.8855 5.11446C76.6309 4.86119 75.6504 3.87942 75.3958 2.62479L74.8919 0.135124C74.8553 -0.0450412 74.5968 -0.0450412 74.5603 0.135124L74.0563 2.62479C73.803 3.87942 72.8213 4.85988 71.5667 5.11446L69.077 5.6184C68.8968 5.65495 68.8968 5.91345 69.077 5.95001L71.5667 6.45395C72.8213 6.70722 73.8017 7.68899 74.0563 8.94361L74.5603 11.4333C74.5968 11.6134 74.8553 11.6134 74.8919 11.4333Z" fill="#0056D0"/>
<path d="M6.42403 43.2689C4.5075 65.1302 23.6859 84.3373 49.4207 84.3373C75.1556 84.3373 94.3353 65.1302 92.4188 43.2689C90.6589 23.1962 71.4648 8.0911 49.4221 8.0911C27.3793 8.0911 8.18391 23.1962 6.42535 43.2689H6.42403Z" fill="#0056D0"/>
<path d="M70.8682 73.2781C71.081 72.9778 71.3969 72.6292 71.8212 72.2193L71.8291 72.2141C72.2299 71.8472 72.6268 71.4725 73.0158 71.0939C73.3566 70.7597 73.6908 70.4242 74.0185 70.0847C74.7208 69.3562 75.4089 68.5977 76.0616 67.8288C76.7066 67.0663 77.3411 66.2673 77.9429 65.4592C78.5461 64.6485 79.1218 63.8168 79.6675 62.9748C80.0279 62.4643 80.9835 61.0987 82.0554 61.7345C82.3896 62.0491 82.6964 62.3755 82.968 62.7084C83.2421 63.0387 83.481 63.3821 83.686 63.7268C83.8897 64.0753 84.0581 64.4291 84.1886 64.7803C84.3218 65.1407 84.4184 65.5049 84.4759 65.9201C84.4719 66.0846 84.4445 66.2634 84.391 66.4527C84.233 67.0076 83.8557 67.6721 83.2265 68.5011C82.6272 69.2505 81.9901 69.9829 81.3334 70.6814C80.6754 71.3785 79.9743 72.0705 79.2498 72.7337C78.5213 73.3956 77.7615 74.0392 76.9873 74.645C76.2118 75.2547 75.3958 75.8461 74.5524 76.4153C73.6777 76.9702 73.0863 77.2365 72.6933 77.2365C72.4897 77.2365 72.3395 77.1647 72.2299 77.0198L72.1685 76.884C72.128 76.6816 72.068 76.4871 71.9883 76.2978C71.9126 76.1124 71.8069 75.9153 71.6828 75.7195C71.5536 75.521 71.4061 75.3278 71.2416 75.1424C71.0732 74.9492 70.8839 74.7625 70.6737 74.5771H70.6724L70.6019 74.4857C70.4256 74.1672 70.5 73.7886 70.8682 73.2768V73.2781Z" fill="#CCE4FF"/>
<path d="M70.8682 73.2781C71.081 72.9778 71.3969 72.6292 71.8212 72.2193L71.8291 72.2141C72.2299 71.8472 72.6268 71.4725 73.0158 71.0939C73.3566 70.7597 73.6908 70.4242 74.0185 70.0847C74.7208 69.3562 75.4089 68.5977 76.0616 67.8288C76.7066 67.0663 77.3411 66.2673 77.9442 65.4592C78.5474 64.6485 79.1231 63.8168 79.6688 62.9748C80.0292 62.4643 80.9848 61.0987 82.0567 61.7345C82.2669 61.9329 82.6651 62.3807 82.9562 62.7215C83.1651 62.9656 83.2082 63.3142 83.0593 63.6001C80.5684 68.4071 77.08 72.6123 72.8657 75.9414C72.4884 76.2391 71.9413 76.1346 71.6868 75.726C71.6868 75.7234 71.6842 75.7221 71.6828 75.7195C71.5536 75.521 71.4061 75.3278 71.2416 75.1424C71.0732 74.9492 70.8839 74.7625 70.6737 74.5771H70.6724L70.6019 74.4857C70.4256 74.1672 70.5 73.7886 70.8682 73.2768V73.2781Z" fill="#CCE4FF"/>
<path d="M51.9927 67.5533C51.9979 68.6826 52.3896 69.3027 53.1912 69.4476C53.8048 69.4737 54.4105 69.509 55.0059 69.5534C55.6012 69.5978 56.1887 69.65 56.7644 69.7101C57.3402 69.7714 57.9068 69.8393 58.4603 69.9163C59.0152 69.9934 59.557 70.0782 60.0883 70.1696C60.8482 70.1853 61.5179 69.6761 62.1328 68.6147C62.5519 67.7805 62.9592 66.9253 63.3522 66.0519C63.7452 65.1785 64.1251 64.2868 64.4893 63.3795C64.8549 62.4708 65.2048 61.5478 65.5403 60.6117C65.8758 59.6744 66.1944 58.7239 66.4972 57.763C66.7962 56.4549 66.4372 55.6598 65.4006 55.3321C64.5846 55.1833 63.7504 55.0475 62.8979 54.9235C62.0453 54.7995 61.1745 54.6885 60.2868 54.5906C59.399 54.4927 58.4956 54.4078 57.5778 54.3373C56.6587 54.2668 55.7265 54.2094 54.78 54.1676C53.5136 54.2472 52.8112 54.9326 52.6298 56.2604C52.588 57.2539 52.5423 58.2383 52.4953 59.2109C52.447 60.1822 52.3974 61.1418 52.3439 62.087C52.2903 63.0309 52.2342 63.9605 52.1768 64.873C52.118 65.7843 52.0579 66.6786 51.994 67.5546L51.9927 67.5533Z" fill="#CCE4FF"/>
<path d="M22.3334 59.1783C22.8713 58.9041 23.4457 58.6325 24.0371 58.3753C24.6337 58.1155 25.2552 57.8636 25.904 57.6207C26.549 57.3779 27.22 57.1455 27.9159 56.9249C28.6091 56.7003 29.3272 56.4875 30.1105 56.276C31.2607 56.1298 32.1706 56.7408 32.7842 58.1469C33.1237 59.1051 33.4775 60.0477 33.8378 60.9525C34.2086 61.8781 34.5963 62.7933 34.988 63.6719C35.381 64.5532 35.7961 65.4357 36.2243 66.2961C36.6486 67.1473 37.0925 67.992 37.5495 68.8236C37.9385 69.6265 38.0521 70.2297 37.8994 70.667C37.8954 70.6788 37.8915 70.6892 37.8863 70.6983C37.7884 70.9503 37.6043 71.1344 37.2766 71.2858C36.8001 71.4125 36.3366 71.5417 35.8901 71.6775C35.4436 71.8146 35.0115 71.9569 34.5963 72.107C34.1785 72.2559 33.7764 72.406 33.3926 72.5653C33.0127 72.7245 32.6458 72.8864 32.2307 73.0783C32.1288 73.1019 32.0244 73.1149 31.9186 73.1149C31.2868 73.1149 30.5374 72.6998 29.6366 71.8525L29.6248 71.8446C28.9264 71.1292 28.2292 70.372 27.5516 69.5939C26.8845 68.8249 26.2317 68.0259 25.6103 67.2191C24.9967 66.4214 24.3922 65.5832 23.8139 64.7359C23.2394 63.8886 22.6846 63.0191 22.1584 62.1314C21.9469 61.7267 21.8046 61.3546 21.7289 61.0151C21.5553 60.224 21.7498 59.6117 22.3334 59.1783Z" fill="#CCE4FF"/>
<path d="M25.904 57.6207C26.549 57.3779 27.22 57.1455 27.9159 56.9249C28.6091 56.7003 29.3272 56.4875 30.1105 56.276C31.2607 56.1298 32.1706 56.7408 32.7842 58.1469C33.1237 59.1051 33.4775 60.0477 33.8378 60.9525C34.2086 61.8781 34.5963 62.7933 34.988 63.6719C35.381 64.5532 35.7961 65.4357 36.2243 66.2961C36.6486 67.1473 37.0925 67.992 37.5495 68.8236C37.9385 69.6265 38.0521 70.2297 37.8994 70.667C37.8954 70.6788 37.8915 70.6892 37.8863 70.6983C37.7884 70.9503 37.6043 71.1344 37.2766 71.2858C37.163 71.3159 37.0494 71.3459 36.9372 71.3759C36.4711 71.5026 35.9737 71.4386 35.552 71.2036C30.9982 68.6695 27.207 64.9239 24.6128 60.4055C24.0515 59.4289 24.4914 58.1782 25.5385 57.763C25.6756 57.7082 25.7996 57.6599 25.904 57.622V57.6207Z" fill="#CCE4FF"/>
<path d="M25.7265 75.9949C26.8022 76.6725 27.4876 76.9127 27.7096 76.6895C27.7892 76.4702 27.8924 76.2547 28.0177 76.0406C28.143 75.8265 28.2919 75.6163 28.4629 75.4088C28.6339 75.2012 28.8258 74.9962 29.0386 74.7952C29.2514 74.5941 29.4864 74.3957 29.741 74.2024C29.8846 73.9922 29.9316 73.5692 28.6783 72.3277C27.9315 71.6318 27.2056 70.9112 26.5033 70.1709C25.8009 69.4294 25.122 68.6682 24.4679 67.8862C23.8138 67.1042 23.1846 66.3039 22.5827 65.4853C21.9809 64.6668 21.4051 63.8325 20.8581 62.9813C20.0682 61.8677 19.4311 61.4838 18.8554 61.7763C18.4768 62.0844 18.1282 62.3977 17.8123 62.7176C17.4976 63.0361 17.2143 63.3612 16.965 63.6902C16.7156 64.0192 16.5002 64.3521 16.32 64.6903C16.1399 65.0271 15.9949 65.3678 15.8853 65.7138C15.8213 66.283 16.1777 67.0637 16.9728 68.1003C17.5825 68.8445 18.2248 69.5704 18.8972 70.2741C19.5695 70.9777 20.2732 71.6618 21.0043 72.3211C21.7367 72.9817 22.4979 73.6189 23.2851 74.2325C24.0737 74.8461 24.8883 75.4349 25.7278 75.9976L25.7265 75.9949Z" fill="#CCE4FF"/>
<path d="M16.8658 65.5415C19.4311 69.8602 22.8347 73.6241 26.8505 76.6072C27.2879 76.7926 27.579 76.8227 27.7096 76.6908C27.7892 76.4715 27.8937 76.2547 28.019 76.0419C28.1456 75.8291 28.2932 75.6176 28.4642 75.4101C28.6352 75.2025 28.8258 74.9962 29.0386 74.7964C29.2514 74.5941 29.4877 74.3983 29.741 74.2037C29.8833 73.9948 29.9303 73.5718 28.677 72.329C27.9302 71.6318 27.2043 70.9125 26.502 70.1722C25.7996 69.4307 25.1207 68.6682 24.4666 67.8862C23.8139 67.1055 23.1833 66.3052 22.5827 65.4866C21.9796 64.6694 21.4038 63.8325 20.8568 62.9839C20.0669 61.869 19.4312 61.4851 18.8541 61.7763C18.4755 62.0844 18.1269 62.399 17.8123 62.7176C17.4976 63.0361 17.213 63.3612 16.965 63.6889C16.9624 63.6915 16.9598 63.6954 16.9585 63.698C16.5524 64.232 16.525 64.9644 16.8671 65.5402L16.8658 65.5415Z" fill="#CCE4FF"/>
<path d="M52.0697 83.1219L52.0814 83.0566L52.1036 82.9274L52.2929 82.866C52.3243 82.8543 52.3556 82.8451 52.3869 82.836C52.4235 82.8229 52.4614 82.8125 52.4979 82.8007H52.4992C52.87 82.6819 53.2447 82.5749 53.6194 82.4665L54.3439 82.255C55.31 81.9626 56.2853 81.6283 57.2396 81.2654C58.1705 80.909 59.1183 80.5095 60.0596 80.0708C60.8703 79.6922 61.6876 79.2849 62.4905 78.8515C62.4918 78.8515 62.4918 78.8502 62.4944 78.8502C62.595 78.7966 62.6942 78.7431 62.7934 78.6883C63.6707 78.2065 64.5572 77.6791 65.4371 77.1177C65.8171 76.884 66.1474 76.6973 66.4359 76.5498C67.1866 76.1673 67.6592 76.0694 68.0038 76.2064L68.1004 76.2639C68.3028 76.4388 68.4856 76.6177 68.6488 76.7978C68.8133 76.9832 68.9608 77.1699 69.0848 77.3618C69.2141 77.5564 69.3224 77.7548 69.406 77.9532C69.4948 78.1647 69.56 78.3645 69.6005 78.5669L69.6175 78.6413L69.5992 78.7131C69.577 78.8058 69.5339 78.9102 69.4399 79.0277C69.2115 79.3175 68.6866 79.7027 67.4333 80.268C66.475 80.6792 65.4815 81.0617 64.4854 81.4064C63.4919 81.7511 62.4605 82.0696 61.4187 82.3516C60.3847 82.6297 59.3181 82.8764 58.2462 83.0879C57.1822 83.2968 56.0842 83.4718 54.9771 83.6115C54.8283 83.6284 54.6873 83.6454 54.5568 83.6585C53.3596 83.7877 52.7956 83.7995 52.5475 83.7982H52.3086L52.2381 83.5684C52.2303 83.554 52.2198 83.5331 52.1976 83.4992C52.1611 83.4626 52.1311 83.4235 52.1102 83.3843C52.071 83.3138 52.0566 83.2355 52.0632 83.1545C52.0645 83.1428 52.0671 83.1323 52.0684 83.1206L52.0697 83.1219Z" fill="#CCE4FF"/>
<path d="M50.4743 81.6453C50.3699 82.3464 50.3921 82.5957 50.4064 82.6702C50.4952 82.6937 50.5605 82.6976 50.6245 82.7028C50.6884 82.708 50.7524 82.7132 50.8138 82.7185C50.8764 82.725 50.9365 82.7315 50.9965 82.7394C51.0566 82.7472 51.1153 82.7563 51.1728 82.7655C51.5318 82.5971 52.1324 82.1166 52.4587 81.8438C52.9966 81.3803 53.528 80.8816 54.0528 80.3515C54.5789 79.8202 55.0972 79.2562 55.609 78.6622C56.1208 78.0668 56.6247 77.4415 57.1208 76.7874C57.6169 76.132 58.1039 75.4492 58.5804 74.739C59.164 73.7716 59.1823 73.1998 58.634 72.9922C58.1809 72.9139 57.7175 72.842 57.2436 72.7781C56.7696 72.7128 56.2866 72.6541 55.7957 72.6031C55.3035 72.5522 54.8035 72.5078 54.2943 72.47C53.7852 72.4334 53.2695 72.4034 52.746 72.3812C51.8021 72.483 51.5527 73.3577 51.4469 74.0053C51.3725 74.7573 51.2968 75.4845 51.2185 76.1842C51.1401 76.8814 51.0605 77.5524 50.9796 78.1922C50.8986 78.8306 50.8151 79.4403 50.7315 80.016C50.648 80.5917 50.5618 81.1348 50.4743 81.644V81.6453Z" fill="#CCE4FF"/>
<path d="M47.9833 81.8307C48.597 82.4078 48.9455 82.6506 49.0996 82.7446C49.2027 82.7498 49.2628 82.742 49.3241 82.7341C49.3855 82.7263 49.4469 82.7198 49.5108 82.7133C49.5735 82.7067 49.6375 82.7028 49.7028 82.6976C49.768 82.6937 49.8333 82.6898 49.8986 82.6884C49.9273 82.6388 50.0122 82.4887 49.9965 81.6427C49.9756 81.1335 49.9534 80.5891 49.9312 80.0134C49.909 79.4363 49.8868 78.8267 49.8646 78.1882C49.8424 77.5485 49.8189 76.8775 49.7967 76.179C49.7746 75.4792 49.7511 74.7521 49.7289 74.0001C49.6309 72.983 49.2419 72.4491 48.5356 72.3681C48.0108 72.3877 47.4912 72.4138 46.9768 72.4478C46.4637 72.4817 45.9571 72.5235 45.4571 72.5718C44.9584 72.6201 44.4662 72.6749 43.9832 72.7376C43.5001 72.8003 43.0249 72.8682 42.5588 72.9439C41.9896 73.1475 41.9661 73.7181 42.4883 74.6907C42.9205 75.4035 43.3604 76.0889 43.8069 76.7469C44.2534 77.4036 44.7064 78.0329 45.166 78.6308C45.6242 79.2275 46.0903 79.7954 46.5603 80.3293C47.029 80.8633 47.5042 81.3646 47.9833 81.8307Z" fill="#CCE4FF"/>
<path d="M45.2509 83.2551C46.2548 83.3765 47.0421 83.4444 47.5904 83.4574C47.6531 83.4287 47.6661 83.4052 47.6805 83.383C47.6948 83.3608 47.7131 83.3373 47.7327 83.3151C47.7523 83.2929 47.7745 83.2707 47.7993 83.2498C47.8241 83.2289 47.8502 83.208 47.8789 83.1872C47.2301 82.9221 46.5433 82.7589 45.8749 82.5474C44.9205 82.2446 43.9753 81.9051 43.0419 81.533C42.1084 81.1597 41.1854 80.7536 40.2767 80.315C39.3681 79.8763 38.4725 79.405 37.5912 78.9037C36.71 78.4024 35.8444 77.8697 34.9958 77.3096C33.783 76.542 33.095 76.273 32.6981 76.4101C32.4787 76.5746 32.2777 76.743 32.0936 76.914C31.9095 77.0851 31.7437 77.2587 31.5962 77.4362C31.4487 77.6125 31.3194 77.7927 31.2111 77.9741C31.1014 78.1556 31.0113 78.3397 30.9421 78.5264C30.9787 78.8528 31.6236 79.3045 32.8586 79.8685C33.8195 80.2823 34.8013 80.6649 35.8013 81.0161C36.8014 81.3672 37.8197 81.6858 38.855 81.9691C39.8903 82.2537 40.9413 82.5044 42.0079 82.7198C43.0745 82.9352 44.1555 83.1141 45.2495 83.2564L45.2509 83.2551Z" fill="#CCE4FF"/>
<path d="M62.6563 11.7088C62.7529 11.7592 62.9031 11.8302 63.1067 11.9216C63.595 12.1383 64.0689 12.3902 64.5311 12.6775C64.9933 12.9647 65.4411 13.2858 65.8758 13.6436C66.0377 13.7754 66.197 13.9125 66.3523 14.0548C66.62 14.2937 66.8811 14.5483 67.1343 14.8146C67.5391 15.2389 67.9255 15.6972 68.2963 16.1881C68.8929 16.8891 69.6436 17.4048 70.594 17.7665C71.2834 17.9923 71.9518 18.2286 72.5928 18.4767C73.2364 18.7208 73.854 18.9793 74.4454 19.2456C75.0368 19.5107 75.6021 19.7874 76.1413 20.0721C76.2066 20.1073 76.2705 20.1412 76.3358 20.1778C76.8032 20.4285 77.2497 20.6883 77.6727 20.9507C77.7641 21.0029 77.8881 21.0669 77.986 21.1047C78.0095 21.0865 78.0421 21.0603 78.0656 21.0395C77.9743 20.8358 77.8946 20.7405 77.5369 20.3501C77.2797 20.0825 77.0173 19.824 76.751 19.5681C76.482 19.3135 76.2092 19.0681 75.9311 18.8266C75.653 18.585 75.3697 18.3513 75.0799 18.1242C74.7927 17.8957 74.4976 17.6751 74.1986 17.461C71.4596 15.6306 71.3525 15.5588 69.6527 14.6423C67.0403 13.3394 66.885 13.261 65.0807 12.5495C64.4319 12.3158 63.5702 11.9934 62.9135 11.7779C62.8378 11.7544 62.736 11.7218 62.6563 11.7074V11.7088Z" fill="#CCE4FF"/>
<path d="M51.2511 10.1408C51.3294 10.3627 51.4026 10.5586 51.4731 10.7897C51.4939 10.8562 51.5135 10.9267 51.5318 10.9985C51.584 11.1787 51.6336 11.3785 51.6819 11.5952C51.7485 11.8994 51.8151 12.2427 51.8804 12.6187C51.9457 12.9973 52.007 13.4125 52.0671 13.8616C52.2707 14.4752 52.977 14.8355 54.2238 14.9609C55.156 15.0079 56.0738 15.0679 56.9785 15.1462C57.882 15.222 58.771 15.3147 59.6444 15.423C60.5179 15.5301 61.3743 15.6515 62.2138 15.786C63.0532 15.9217 63.8744 16.0693 64.6773 16.2325C65.0481 16.286 65.3275 16.2886 65.5194 16.2416C65.8536 16.1567 65.9124 15.9152 65.7035 15.5144C65.3823 15.034 65.0455 14.5888 64.6943 14.1775C64.4201 13.8564 64.1381 13.5561 63.8483 13.278C63.7673 13.1984 63.6851 13.1227 63.6042 13.0482C63.578 13.026 63.5559 13.0038 63.5297 12.983C63.5284 12.983 63.5284 12.9817 63.5284 12.9817C63.1759 12.667 62.8143 12.3824 62.4396 12.1291C62.0388 11.8589 61.6289 11.6226 61.2072 11.4228C60.8286 11.2583 60.2554 11.039 59.1784 10.8053C58.6548 10.6983 58.1235 10.6017 57.5778 10.5129C57.0347 10.4241 56.4785 10.3445 55.9132 10.274C55.3479 10.2048 54.7709 10.1447 54.1847 10.0938C53.6011 10.0416 53.0058 10.0011 52.4026 9.97108C51.5906 9.94758 51.3582 10.0181 51.2472 10.1395L51.2511 10.1408Z" fill="#CCE4FF"/>
<path d="M34.629 15.2781L34.6472 15.2415C34.9201 14.7546 35.2125 14.2963 35.5154 13.8812C35.6695 13.6684 35.8248 13.466 35.9828 13.2728C35.9828 13.2689 35.9841 13.2689 35.9867 13.2689C36.116 13.1096 36.2478 12.9569 36.381 12.8145C36.381 12.8132 36.3823 12.8132 36.3823 12.8132C36.4097 12.7819 36.4358 12.7545 36.4632 12.7245C36.7949 12.3746 37.1421 12.0573 37.4946 11.7806C37.8602 11.4946 38.2323 11.2479 38.6109 11.0429C38.9634 10.8719 39.5104 10.6447 40.6266 10.415C41.1684 10.3105 41.7168 10.2165 42.2781 10.1317C42.8356 10.0481 43.4048 9.96977 43.9845 9.90319C44.5615 9.83791 45.1503 9.78047 45.7417 9.73477C46.3371 9.68647 46.9389 9.65122 47.5538 9.6238C48.4586 9.60552 49.0147 9.67341 49.1675 10.086L49.191 10.1512L49.1871 10.2217C49.1779 10.3758 49.1688 10.569 49.1596 10.7962C49.1557 10.8745 49.1544 10.9555 49.1505 11.0403C49.1466 11.2087 49.1414 11.3941 49.1388 11.5952C49.1309 11.9007 49.1257 12.2401 49.1205 12.6174L49.0996 13.9203C48.9364 14.6971 48.174 15.1384 46.7509 15.2703C45.8201 15.3094 44.8984 15.3643 43.9923 15.4348C43.0837 15.5053 42.188 15.5901 41.3042 15.6907C40.4217 15.7925 39.5522 15.9035 38.697 16.034C37.8484 16.1633 37.0077 16.303 36.1682 16.4635C35.9619 16.491 35.7804 16.504 35.6173 16.504C35.159 16.504 34.8574 16.397 34.6786 16.1789C34.6747 16.175 34.6707 16.1698 34.6668 16.1659C34.4932 15.94 34.4801 15.641 34.6277 15.2794L34.629 15.2781Z" fill="#CCE4FF"/>
<path d="M21.9548 20.8423C21.9939 20.8632 22.0462 20.8893 22.084 20.9089C22.195 20.8737 22.3386 20.8084 22.4417 20.7575C22.6611 20.6334 22.883 20.5107 23.1115 20.3919C23.4326 20.2196 23.7642 20.0525 24.1037 19.8893C24.686 19.6073 25.2917 19.3344 25.9223 19.0733C26.5542 18.8122 27.2109 18.5576 27.8872 18.3174C28.5673 18.0746 29.2684 17.8448 29.9917 17.6242C30.98 17.2677 31.7176 16.756 32.2477 16.0614C32.5688 15.5745 32.9043 15.1175 33.2568 14.6945C33.6041 14.2794 33.9618 13.8995 34.3339 13.5509C34.3417 13.543 34.347 13.5365 34.3548 13.53C34.7347 13.1775 35.1277 12.8563 35.5363 12.573C35.941 12.2897 36.3601 12.0404 36.7909 11.8263C37.0024 11.7192 37.0416 11.697 37.1278 11.6369C37.0486 11.6317 36.9063 11.6596 36.7009 11.7205C36.6042 11.7505 36.5076 11.7819 36.411 11.8119C36.317 11.8419 36.2204 11.8733 36.1251 11.9046C36.0311 11.9346 35.9358 11.9659 35.8431 11.9973C35.7491 12.0312 35.6564 12.0626 35.565 12.0939C34.8679 12.3576 33.9383 12.7023 33.2516 12.9843C30.7685 14.1018 30.4499 14.2454 28.7162 15.2167L26.8492 16.35C26.4393 16.615 26.0385 16.8931 25.6494 17.1842C25.2578 17.4766 24.8766 17.7808 24.5058 18.0981C24.1337 18.4166 23.7721 18.7469 23.4196 19.0903C23.0671 19.4336 22.7263 19.7887 22.396 20.1582C22.0657 20.5473 21.9978 20.64 21.9535 20.8436L21.9548 20.8423Z" fill="#CCE4FF"/>
<path d="M89.9487 44.2337C89.9395 44.158 89.9278 44.0836 89.9147 44.0079C89.9317 44.1345 89.95 44.2624 89.967 44.3917C89.9617 44.3447 89.9539 44.2807 89.9487 44.2337Z" fill="#CCE4FF"/>
<path d="M82.84 26.6494C83.0437 27.0058 83.2408 27.3687 83.4275 27.7356C83.6246 28.1155 83.8113 28.5032 83.9889 28.8962C84.3388 29.6717 84.656 30.4681 84.938 31.288C85.22 32.1118 85.4668 32.9551 85.6756 33.8207C85.8845 34.6863 86.0582 35.5741 86.1913 36.4827C86.4198 37.7452 86.7814 38.6669 87.2984 39.2988C87.6784 39.6878 88.0191 40.0834 88.3233 40.4829C88.6262 40.8837 88.8886 41.291 89.1118 41.7023C89.3064 42.0678 89.4722 42.436 89.6027 42.8068C89.621 42.8551 89.638 42.9047 89.6549 42.953C89.7698 43.3003 89.8573 43.6501 89.9147 44.0039C89.3155 39.539 89.0204 38.0233 87.0112 33.0126C85.3388 29.6247 85.203 29.3492 83.7774 27.2108C83.6978 27.0972 83.6155 26.9849 83.5333 26.8739C83.4484 26.763 83.3609 26.652 83.2682 26.5397C83.1768 26.4287 83.0828 26.3191 82.9862 26.2094C82.8883 26.0997 82.7878 25.9901 82.6847 25.8817C82.6233 25.8243 82.5397 25.7486 82.4692 25.7016C82.4684 25.8835 82.592 26.1981 82.84 26.6455V26.6494Z" fill="#CCE4FF"/>
<path d="M52.4979 18.1542C52.5149 18.3892 52.5319 18.6294 52.5501 18.8723C52.5776 19.29 52.6063 19.7196 52.6311 20.1621C52.6742 20.8671 52.712 21.6048 52.7499 22.3737C52.7864 23.1466 52.8191 23.9495 52.8504 24.7864C52.8804 25.6232 52.9065 26.4927 52.93 27.3909C53.1115 28.5946 53.9262 29.2722 55.4184 29.4654C56.5386 29.519 57.6431 29.5921 58.7293 29.6808C59.8155 29.7696 60.886 29.878 61.937 30.002C62.9866 30.1247 64.0154 30.2657 65.0259 30.4224C66.0325 30.5777 67.0195 30.7501 67.9829 30.9381C69.0548 31.0438 69.6645 30.6874 69.8316 29.8519C69.8629 29.7096 69.8786 29.549 69.8812 29.3766C69.8016 28.4732 69.6971 27.5998 69.5757 26.7564C69.4517 25.9144 69.3081 25.1023 69.1436 24.3177C68.9804 23.537 68.7963 22.7863 68.5952 22.0669C68.3929 21.3476 68.1722 20.6595 67.9333 20.0029C67.5064 19.1242 66.7636 18.5681 65.599 18.2547C64.7504 18.0863 63.8796 17.9284 62.9919 17.7861C62.1041 17.6451 61.1967 17.5171 60.2737 17.4035C59.3507 17.2899 58.4081 17.1946 57.4538 17.1124C56.4968 17.0301 55.5255 16.9662 54.5385 16.9153C53.2369 16.9322 52.5697 17.3356 52.4966 18.1516L52.4979 18.1542Z" fill="#CCE4FF"/>
<path d="M9.27795 42.8864L9.43331 42.9047L9.60825 42.9269H9.63045C9.63045 42.9269 9.63175 42.9269 9.63175 42.9256H9.60825L9.44376 42.8564L9.2923 42.7898L9.34062 42.4543C10.0156 38.6107 10.0691 38.4515 11.4726 34.3795C12.6724 31.4838 13.0001 30.9302 14.8383 27.8178C14.974 27.6103 15.1216 27.4027 15.2782 27.1951C15.4375 26.9914 15.6033 26.7891 15.7809 26.5893C15.9558 26.3896 16.1412 26.1924 16.3357 25.994C16.5328 25.7969 16.7365 25.6023 16.9637 25.4013C17.0303 25.3477 17.1608 25.2472 17.2888 25.1819L17.495 25.0801L17.8802 25.4287L17.858 25.6049C17.8279 25.8308 17.7836 25.9744 17.6647 26.2264C17.6204 26.323 17.5629 26.4379 17.4924 26.5789C17.1138 27.2904 16.7639 28.0359 16.4506 28.7931C16.1412 29.5464 15.8553 30.3414 15.6046 31.1509C15.3579 31.9551 15.1424 32.7959 14.9636 33.6484C14.786 34.5009 14.6411 35.3874 14.5354 36.296C14.3239 37.6251 13.9126 38.6029 13.2481 39.3053C12.8212 39.6761 12.423 40.0638 12.0653 40.4568C11.7089 40.8445 11.3903 41.2427 11.1135 41.6396C10.8355 42.0404 10.5965 42.4464 10.3994 42.8485C10.2088 43.2402 10.0495 43.6514 9.9007 44.1449L9.25314 45.2912L9.18004 44.1815C9.16306 43.9308 9.18526 43.6527 9.28056 42.8877L9.27795 42.8864ZM9.77536 42.6109L9.65134 42.6148L9.75838 42.6488C9.76361 42.6357 9.77013 42.6253 9.77536 42.6122V42.6109ZM9.67092 42.8381C9.67092 42.8381 9.67484 42.8276 9.67614 42.8211H9.62L9.66961 42.8381H9.67092Z" fill="#CCE4FF"/>
<path d="M83.609 55.2616C83.1599 56.5019 83.1364 57.3714 83.5359 57.921C83.8792 58.25 84.1886 58.5855 84.4641 58.9263C84.7383 59.267 84.9772 59.6117 85.1808 59.9629C85.3832 60.3128 85.5503 60.6679 85.6796 61.0256C85.8088 61.3833 85.9002 61.7463 85.9537 62.1118C85.9655 62.1484 85.9824 62.198 85.9942 62.2345C86.0464 62.2397 86.1156 62.2463 86.1678 62.2515C86.4276 62.0478 86.5961 61.8076 86.9485 61.1326C87.3572 60.3023 87.7293 59.4563 88.0622 58.596C88.3951 57.7369 88.6901 56.8648 88.9447 55.9797C89.1993 55.0958 89.4134 54.2002 89.5857 53.2929C89.7581 52.3868 89.8886 51.4716 89.9774 50.546C90.0858 49.2666 90.1093 48.3083 90.0479 47.6177C89.9931 47.1908 89.8952 46.7691 89.7555 46.3513C89.6158 45.9322 89.433 45.5184 89.2111 45.1097C88.9878 44.6998 88.7254 44.2964 88.4225 43.8995C88.1196 43.5013 87.7763 43.1096 87.3964 42.7245C86.8846 42.3459 86.5595 42.7519 86.4028 43.9674C86.3219 44.9257 86.2018 45.8826 86.0425 46.8357C85.8832 47.7887 85.6848 48.7391 85.4511 49.6817C85.2161 50.6256 84.9432 51.5643 84.6364 52.4939C84.3283 53.4247 83.985 54.3477 83.6077 55.259L83.609 55.2616Z" fill="#CCE4FF"/>
<path d="M83.5359 57.921C83.5528 57.9367 83.5698 57.9537 83.5881 57.9732C84.2226 58.6129 85.3101 58.3297 85.5777 57.4706C86.6848 53.9156 87.2789 50.1348 87.2789 46.2142C87.2789 44.9922 87.2214 43.7859 87.1078 42.5927C86.7606 42.5443 86.5295 43 86.4028 43.9687C86.3232 44.927 86.2031 45.8839 86.0425 46.837C85.8832 47.79 85.6848 48.7391 85.4511 49.683C85.2161 50.627 84.9432 51.5643 84.6351 52.4952C84.327 53.426 83.985 54.3478 83.6064 55.2616C83.1573 56.5006 83.1338 57.3701 83.5346 57.921H83.5359Z" fill="#CCE4FF"/>
<path d="M9.48945 49.2287C9.50381 49.559 9.52992 49.9141 9.56909 50.3006C9.68006 51.2275 9.83411 52.1453 10.0273 53.0527C10.2219 53.9613 10.4569 54.8582 10.7336 55.7447C11.0078 56.6311 11.3237 57.5059 11.6775 58.3688C12.0313 59.2305 12.423 60.0804 12.8512 60.9146C13.6293 62.322 13.9152 62.1327 14.0158 61.8951C14.1293 61.5282 14.2808 61.1666 14.4688 60.8089C14.6581 60.4485 14.8826 60.0947 15.1437 59.7449C15.4049 59.3963 15.7012 59.0516 16.0315 58.7122C16.3618 58.3714 16.7287 58.0372 17.1256 57.7108C17.277 57.5333 17.3815 57.3218 17.435 57.075C17.5512 56.5593 17.4572 55.8896 17.1517 55.0501C16.7665 54.1362 16.4114 53.2093 16.0929 52.2759C15.7743 51.3437 15.4884 50.4037 15.2378 49.4559C14.9897 48.5107 14.7756 47.5589 14.5993 46.6046C14.4218 45.6502 14.2821 44.6933 14.1816 43.7324C13.991 42.5143 13.6084 42.1044 13.0157 42.4791C12.5744 42.8629 12.1684 43.2546 11.8029 43.6514C11.4373 44.0483 11.1096 44.4504 10.8224 44.8604C10.5365 45.2677 10.2897 45.6816 10.0848 46.1006C9.8785 46.5184 9.71531 46.9401 9.59389 47.3683C9.49206 47.8527 9.45811 48.4663 9.48945 49.23V49.2287Z" fill="#CCE4FF"/>
<path d="M11.5653 46.2142C11.5653 51.3816 12.5993 56.3074 14.4766 60.7945C14.6633 60.4381 14.8866 60.0895 15.1437 59.7435C15.4049 59.395 15.7025 59.0503 16.0315 58.7109C16.3618 58.3701 16.7287 58.0359 17.1256 57.7095C17.277 57.532 17.3815 57.3205 17.435 57.0737C17.5512 56.558 17.4572 55.8883 17.1517 55.0488C16.7665 54.1349 16.4114 53.208 16.0929 52.2745C15.7743 51.3424 15.4884 50.4024 15.2378 49.4546C14.9897 48.5094 14.7756 47.5576 14.5993 46.6033C14.4218 45.6489 14.2821 44.692 14.1816 43.7311C13.991 42.513 13.6084 42.1031 13.0157 42.4778C12.5744 42.8616 12.1684 43.2533 11.8029 43.6501C11.7467 43.7089 11.6932 43.7702 11.6397 43.8303C11.5875 44.6189 11.564 45.4139 11.564 46.2142H11.5653Z" fill="#CCE4FF"/>
<path d="M63.77 68.8954L63.7791 68.881C64.2608 68.0729 64.7321 67.2308 65.1865 66.3796C65.6264 65.5558 66.0677 64.6772 66.4985 63.7672C66.9228 62.8703 67.3315 61.9577 67.7114 61.0569C68.1004 60.1339 68.4738 59.1939 68.8276 58.2409C69.4491 56.8648 70.3146 56.2512 71.4975 56.4196C72.2038 56.6272 72.8839 56.8466 73.5419 57.0737C74.2091 57.3035 74.8475 57.545 75.4363 57.7839C76.0721 58.0437 76.6413 58.2944 77.1753 58.5503C77.7223 58.8101 78.2523 59.0843 78.802 59.4015C79.2772 59.7984 79.4339 60.3689 79.2733 61.1091C79.1936 61.4747 79.0357 61.8807 78.8007 62.3285C78.2876 63.1797 77.7275 64.0479 77.14 64.9044C76.563 65.7373 75.9494 66.5715 75.3162 67.3797C74.6725 68.1956 74.0093 68.9894 73.3422 69.7401C72.6633 70.5025 71.9492 71.2545 71.2142 71.983C70.3225 72.8029 69.5914 73.2128 68.9543 73.2128C68.825 73.2128 68.6984 73.1985 68.5757 73.1645C68.2584 72.9935 67.9216 72.829 67.5691 72.6671C67.2127 72.5078 66.8419 72.3525 66.4529 72.2023C66.0599 72.0522 65.6552 71.9073 65.2348 71.7689C64.8105 71.6292 64.3731 71.496 63.8587 71.3446C63.6211 71.2245 63.4619 71.0587 63.3718 70.842C63.3587 70.8145 63.3496 70.7858 63.3404 70.7584C63.1994 70.3158 63.3365 69.7244 63.7726 68.8967L63.77 68.8954Z" fill="#CCE4FF"/>
<path d="M63.7713 68.8954L63.7804 68.881C64.2621 68.0729 64.7334 67.2308 65.1878 66.3796C65.6277 65.5558 66.069 64.6772 66.4998 63.7672C66.9241 62.8703 67.3328 61.9577 67.7127 61.0569C68.1017 60.1339 68.4751 59.1939 68.8289 58.2409C69.4504 56.8648 70.316 56.2512 71.4988 56.4196C72.2051 56.6272 72.8853 56.8466 73.5432 57.0737C74.2104 57.3035 74.8488 57.545 75.4376 57.7839C75.4728 57.7983 75.5068 57.8114 75.5394 57.8244C73.0458 63.4187 68.8028 68.069 63.5141 71.077C63.4553 71.0065 63.407 70.9268 63.3692 70.8394C63.3561 70.8119 63.347 70.7832 63.3378 70.7558C63.1968 70.3132 63.3339 69.7218 63.77 68.8941L63.7713 68.8954Z" fill="#CCE4FF"/>
<path d="M39.2545 68.5455C39.8276 69.6108 40.4817 70.1239 41.2546 70.1135C41.8003 70.0247 42.3565 69.9437 42.9231 69.8706C43.4897 69.7975 44.0654 69.7322 44.6503 69.6748C45.2352 69.6174 45.8292 69.5691 46.4311 69.5286C47.0329 69.4881 47.6413 69.4568 48.2575 69.4346C49.0683 69.2936 49.4899 68.6761 49.5487 67.5481C49.5252 66.6734 49.503 65.7778 49.4808 64.8665C49.4586 63.9539 49.4351 63.0244 49.4129 62.0792C49.3907 61.134 49.3685 60.1744 49.3463 59.2031C49.3241 58.2304 49.3032 57.2461 49.2824 56.2525C49.1283 54.9235 48.4377 54.2342 47.17 54.1454C46.2209 54.1819 45.2822 54.2329 44.3539 54.2981C43.427 54.3634 42.5118 54.4417 41.611 54.5344C40.7102 54.6271 39.8237 54.7316 38.9516 54.8504C38.0808 54.9679 37.2244 55.0997 36.3862 55.242C35.317 55.5632 34.9292 56.3557 35.2034 57.6664C35.4893 58.6299 35.7896 59.583 36.1029 60.5217C36.4163 61.4603 36.7426 62.3873 37.0821 63.2972C37.4202 64.2072 37.7714 65.1015 38.1343 65.9775C38.4973 66.8535 38.8707 67.7113 39.2545 68.5481V68.5455Z" fill="#CCE4FF"/>
<path d="M51.1741 82.7655C51.1741 82.7655 51.1754 82.7642 51.178 82.7642L51.3934 82.5788C51.4365 82.5435 51.477 82.507 51.6441 82.3843C51.8112 82.2602 52.1036 82.0474 52.6494 81.6558C52.699 81.6205 52.7499 81.584 52.7995 81.5461C53.3609 81.1401 53.9249 80.7001 54.4797 80.2353C55.0764 79.7327 55.6769 79.1896 56.267 78.6165C56.579 78.3136 56.8898 78.0002 57.1992 77.6765C57.2031 77.6752 57.2031 77.6726 57.2044 77.6712C57.4746 77.3919 57.7423 77.1033 58.006 76.8109C58.5765 76.1803 59.1405 75.5145 59.6928 74.8239C60.2959 74.1267 61.0727 73.3368 62.0714 73.4152C62.4696 73.5248 62.8535 73.641 63.2242 73.7625C63.595 73.8852 63.9527 74.0105 64.2961 74.1411C64.6408 74.2729 64.9698 74.41 65.2844 74.551C65.599 74.6907 65.8993 74.8382 66.1839 74.9884L66.2753 75.0576C66.4019 75.1933 66.4594 75.3617 66.4398 75.5484C66.4267 75.6986 66.3654 75.8578 66.2505 76.0328C66.0416 76.354 65.6473 76.7221 65.0429 77.1751C64.2217 77.7574 63.3652 78.3227 62.4958 78.8528C62.4944 78.8528 62.4944 78.8541 62.4918 78.8541C61.621 79.388 60.732 79.8907 59.8546 80.3489C58.9669 80.8124 58.0504 81.2497 57.1287 81.6518C56.203 82.054 55.2631 82.4247 54.3296 82.7511C53.0358 83.1911 52.4248 83.3295 52.1794 83.3765L52.1102 83.3882L52.0697 83.3961L51.866 83.3125L51.7825 83.2772L51.6428 83.2198C51.5801 83.1989 51.4874 83.1715 51.3921 83.0932L51.0931 82.8386L51.1728 82.7681L51.1741 82.7655Z" fill="#CCE4FF"/>
<path d="M46.1177 82.4104C46.9572 82.712 47.623 82.9195 48.0956 83.0292C48.1909 83.0161 48.2314 82.9992 48.2745 82.9822C48.3176 82.9652 48.362 82.9496 48.4077 82.9339C48.4533 82.9182 48.5017 82.9026 48.5513 82.8882C48.6009 82.8738 48.6518 82.8595 48.704 82.8464C48.6309 82.7485 48.61 82.7224 47.5891 81.909C47.0212 81.4599 46.4572 80.9769 45.901 80.4612C45.3435 79.9442 44.7926 79.3959 44.2482 78.8162C43.7038 78.2352 43.1659 77.6243 42.6372 76.9845C42.1071 76.3435 41.5875 75.6751 41.0757 74.9805C40.6044 74.3878 39.8851 73.6071 39.0874 73.6632C38.6761 73.769 38.2779 73.8813 37.8915 73.9988C37.5051 74.1163 37.1304 74.2377 36.7701 74.3656C36.4097 74.4923 36.0624 74.6241 35.7295 74.7612C35.3966 74.897 35.0781 75.038 34.7739 75.1842C34.4684 75.4688 34.83 76.0171 35.8457 76.8135C36.6473 77.4023 37.4659 77.9637 38.2988 78.495C39.1305 79.0251 39.9765 79.5264 40.8355 79.9964C41.6933 80.4651 42.5641 80.9025 43.4453 81.3059C44.3252 81.7093 45.2169 82.0788 46.1177 82.413V82.4104Z" fill="#CCE4FF"/>
<path d="M70.8604 20.7614C70.8786 20.8084 70.8995 20.8554 70.9165 20.9024C71.1685 21.5238 71.4048 22.1727 71.6189 22.845C71.8526 23.5696 72.0615 24.3268 72.2495 25.1128C72.4388 25.9013 72.6033 26.716 72.743 27.5619C72.8839 28.4092 73.0001 29.284 73.0928 30.1861C73.3226 31.4224 73.9715 32.2501 75.0707 32.7149C75.8958 32.9747 76.6948 33.2476 77.4625 33.5322C78.2301 33.8155 78.9678 34.1132 79.6741 34.42C80.3804 34.7255 81.054 35.0453 81.6951 35.373C82.3361 35.7007 82.9445 36.0388 83.5176 36.3848C84.0411 36.6198 84.3505 36.4919 84.4563 35.9892C84.4994 35.7777 84.5085 35.5023 84.4798 35.1563C84.3518 34.2502 84.1873 33.3651 83.985 32.5008C83.7852 31.6405 83.5489 30.8023 83.2787 29.9863C83.0084 29.1743 82.7055 28.3844 82.3687 27.6207C82.0345 26.857 81.6663 26.1193 81.2694 25.4065C80.6885 24.4495 80.0527 23.7354 79.3203 23.221C78.8098 22.9038 78.2706 22.5944 77.704 22.2954C77.1361 21.9951 76.5395 21.7053 75.9154 21.4259C75.2901 21.1465 74.6386 20.875 73.961 20.6152C73.2808 20.3554 72.5758 20.1073 71.8474 19.8723C70.9126 19.6399 70.5992 19.9219 70.8604 20.7588V20.7614Z" fill="#CCE4FF"/>
<path d="M16.1621 35.6198C16.2783 36.236 16.6425 36.4109 17.2653 36.1589C17.8932 35.8156 18.5551 35.4827 19.2471 35.1576C19.9403 34.8351 20.6636 34.5218 21.4182 34.2189C22.1728 33.9147 22.9574 33.6236 23.7695 33.3455C24.5815 33.0661 25.421 32.7985 26.2879 32.5452C27.438 32.0896 28.0921 31.2658 28.2879 30.0307C28.3467 29.1273 28.4303 28.2526 28.5386 27.4066C28.6444 26.5606 28.7723 25.7446 28.9224 24.9587C29.0713 24.1741 29.241 23.4182 29.4329 22.6936C29.6039 22.046 29.7906 21.4233 29.9943 20.824C30.0165 20.7535 30.0413 20.683 30.0648 20.6152C30.2619 19.7809 29.8938 19.4976 28.9055 19.7196C28.1417 19.9519 27.4002 20.1948 26.6821 20.448C25.9667 20.7026 25.2734 20.969 24.6076 21.2431C23.9405 21.5199 23.3008 21.8045 22.6872 22.0996C22.0749 22.3959 21.49 22.7001 20.9325 23.0134C20.1427 23.5239 19.4977 24.2328 18.9559 25.1885C18.593 25.8974 18.2601 26.635 17.9585 27.3948C17.6569 28.1586 17.3854 28.9471 17.1478 29.7566C16.9088 30.5699 16.7052 31.4081 16.5315 32.2684C16.3605 33.1301 16.226 34.0152 16.1242 34.9213C16.1125 35.1954 16.1242 35.4278 16.1608 35.6171L16.1621 35.6198Z" fill="#CCE4FF"/>
<path d="M33.6067 33.9865C34.5676 33.8116 35.5938 33.6458 36.6565 33.4956C37.6931 33.3455 38.7466 33.2123 39.8198 33.0948C40.889 32.9799 41.9779 32.882 43.081 32.7985C44.1764 32.7175 45.3057 32.6536 46.4611 32.6092C48.1217 32.6901 49.063 33.4878 49.2576 35.0179C49.2706 36.0232 49.2837 37.035 49.3006 38.0533C49.315 39.0729 49.332 40.0965 49.3489 41.1239L49.456 47.3318C49.4521 47.3814 49.4469 47.4323 49.4416 47.4819C49.2732 48.8893 48.4586 49.7052 46.9964 49.9089C45.9989 49.9481 45.0093 50.0029 44.0354 50.0721C43.0602 50.1413 42.098 50.2235 41.1501 50.3202C40.2023 50.4207 39.2689 50.5317 38.3537 50.6557C37.4359 50.7823 36.5364 50.9207 35.6212 51.0761C35.5507 51.08 35.4815 51.0813 35.4149 51.0813C34.1799 51.0813 33.3469 50.392 32.9396 49.0264L32.9305 48.9989C32.7268 47.9898 32.5388 46.9793 32.3665 45.9662C32.1954 44.9518 32.044 43.94 31.9069 42.9256C31.775 41.9373 31.6589 40.9163 31.5583 39.8902C31.48 39.0781 31.4134 38.2609 31.3599 37.4318C31.3468 37.2373 31.3364 37.0402 31.3246 36.8443C31.3834 35.3586 32.1419 34.4004 33.6067 33.9878V33.9865Z" fill="#CCE4FF"/>
<path d="M71.4635 50.9259C71.5732 51.597 71.9361 52.0657 72.5615 52.3437C73.3017 52.5631 74.0145 52.7942 74.7026 53.0357C75.388 53.2746 76.0499 53.5253 76.6831 53.7864C77.315 54.0462 77.9194 54.3151 78.4965 54.5932C79.0709 54.87 79.6166 55.1572 80.1323 55.4496C80.8634 55.7173 81.4796 55.276 82.0214 54.1023C82.3831 53.1741 82.7108 52.2354 83.0045 51.2902C83.2996 50.3463 83.5594 49.3958 83.7826 48.4389C84.0072 47.4845 84.1939 46.5236 84.3466 45.5615C84.4837 44.6959 84.5894 43.8303 84.6639 42.9621C84.6756 42.8642 84.6821 42.7676 84.69 42.6697C84.7135 41.3498 84.3636 40.4228 83.6142 39.8366C83.0398 39.4933 82.4314 39.1578 81.7904 38.8314C81.1467 38.5063 80.4718 38.1917 79.7655 37.8862C79.0566 37.582 78.3189 37.2869 77.55 37.0049C76.781 36.7229 75.982 36.4527 75.1543 36.1942C74.0589 35.9866 73.4414 36.5062 73.2665 37.7817C73.2182 38.7739 73.1437 39.7688 73.0445 40.7662C72.944 41.7636 72.8187 42.765 72.6698 43.7663C72.5197 44.7677 72.3474 45.769 72.1502 46.7678C71.9518 47.7665 71.7325 48.7626 71.4896 49.7548C71.4178 50.1974 71.4087 50.5891 71.4635 50.9272V50.9259Z" fill="#CCE4FF"/>
<path d="M52.6324 44.2207C52.6507 43.1932 52.6663 42.1644 52.6768 41.137C52.6898 40.1095 52.6977 39.0886 52.7029 38.0689C52.7042 37.6094 52.7068 37.1498 52.7068 36.6877V35.9801C52.7068 35.655 52.7055 35.3273 52.7055 34.9996C52.87 33.5048 53.7969 32.7097 55.4863 32.6379C56.6104 32.6914 57.7227 32.7619 58.8141 32.8507C59.9056 32.9434 60.9813 33.0478 62.0349 33.1692C63.0506 33.2894 64.0963 33.4304 65.1421 33.5896C66.1643 33.7476 67.1644 33.9199 68.1514 34.1132C69.5444 34.5283 70.2924 35.4892 70.376 36.9984C70.3669 37.2177 70.3577 37.4358 70.3447 37.659C70.3055 38.4319 70.2533 39.2217 70.1893 40.0116C70.1058 40.9868 70.0026 41.979 69.8681 43.0483C69.7441 44.0287 69.5914 45.051 69.4216 46.0876C69.2506 47.0889 69.06 48.1073 68.8446 49.1426C68.4373 50.4938 67.6305 51.1805 66.4059 51.1805C66.3275 51.1805 66.2479 51.1766 66.1682 51.1714C65.3092 51.0134 64.4332 50.8685 63.5376 50.7379C62.6407 50.6087 61.7242 50.4899 60.7959 50.3841C59.8612 50.2797 58.9107 50.1896 57.9459 50.1152C56.9798 50.0408 55.9968 49.9794 54.968 49.9311C53.5502 49.7248 52.7486 48.9128 52.5854 47.5185C52.5775 47.461 52.571 47.4023 52.5671 47.3409V47.3057C52.5906 46.2808 52.6141 45.2494 52.6324 44.222V44.2207Z" fill="#CCE4FF"/>
<path d="M17.1021 39.317C17.7274 38.9776 18.3998 38.6421 19.1048 38.3157C19.7941 37.9971 20.5304 37.6799 21.2968 37.377C22.0462 37.0767 22.8425 36.7817 23.6663 36.5049C24.4927 36.2229 25.3479 35.954 26.2395 35.6968C26.878 35.5871 27.4002 35.6759 27.801 35.9618C28.2344 36.2738 28.519 36.8169 28.6431 37.6042C28.7083 38.5742 28.7971 39.5755 28.9094 40.5769C29.023 41.5691 29.1574 42.5757 29.3115 43.5679C29.4603 44.5196 29.6392 45.5262 29.8455 46.5589C30.0439 47.5563 30.2645 48.5577 30.5074 49.5642C30.5766 50.0003 30.5857 50.3907 30.5335 50.7418C30.4108 51.5852 29.9408 52.1792 29.113 52.5239C28.3441 52.7367 27.5947 52.9613 26.8727 53.1937C26.1521 53.4287 25.4523 53.6741 24.7813 53.9261C24.1154 54.1806 23.4666 54.447 22.853 54.7172C22.2603 54.977 21.6662 55.259 21.0435 55.5737C20.8581 55.635 20.6805 55.6663 20.5043 55.6663C19.7719 55.6663 19.1439 55.1206 18.6335 54.0396L18.6243 54.0174C18.2483 53.0566 17.9063 52.1022 17.6125 51.1792C17.311 50.2392 17.0342 49.2718 16.7926 48.2979C16.5537 47.3305 16.3475 46.3513 16.179 45.3904C16.0211 44.4857 15.8957 43.5783 15.8031 42.6801C15.7939 42.6018 15.7861 42.5261 15.7795 42.4477C15.7312 41.0051 16.1542 39.9868 17.1034 39.3157L17.1021 39.317Z" fill="#CCE4FF"/>
<path d="M31.4957 26.5919C31.5844 25.7459 31.6928 24.9208 31.8168 24.1388C31.9435 23.3581 32.0871 22.5944 32.2463 21.8672C32.4108 21.1387 32.591 20.4389 32.7947 19.7522C33.2059 18.7717 34.0049 18.1594 35.3274 17.8226C36.2021 17.6607 37.0977 17.508 38.0103 17.3722C38.9203 17.2364 39.8472 17.115 40.7872 17.0066C41.7311 16.9009 42.6894 16.8095 43.6555 16.7338C44.6255 16.6594 45.6073 16.6006 46.6204 16.5588C48.0982 16.5863 48.9312 17.1006 49.097 18.1385L49.1583 27.417C49.157 27.4314 49.1544 27.4484 49.1531 27.464C48.9808 28.7931 48.0682 29.5673 46.4167 29.7683C45.3357 29.8127 44.2195 29.878 43.0954 29.9589C42.0014 30.0425 40.923 30.1404 39.8603 30.2553C38.7976 30.3715 37.7518 30.5059 36.7231 30.6522C35.6995 30.8023 34.6903 30.9694 33.6733 31.1509C33.5454 31.1639 33.4213 31.1692 33.3038 31.1692C32.7033 31.1692 32.2437 31.0229 31.9017 30.724C31.5975 30.4629 31.4043 30.0843 31.3233 29.5999C31.305 29.4928 31.2933 29.3793 31.2868 29.2631V29.2265C31.3364 28.3257 31.4069 27.4379 31.4944 26.5919H31.4957Z" fill="#CCE4FF"/>
<path d="M21.9783 38.1995C22.2054 37.424 22.789 36.8026 23.5541 36.5441C23.5919 36.531 23.6285 36.5193 23.6663 36.5062C24.4927 36.2242 25.3479 35.9553 26.2395 35.6981C26.878 35.5884 27.4002 35.6772 27.801 35.9631C28.2344 36.2751 28.519 36.8182 28.6431 37.6055C28.7083 38.5755 28.7971 39.5769 28.9094 40.5782C29.023 41.5704 29.1574 42.577 29.3115 43.5692C29.4603 44.5209 29.6392 45.5275 29.8455 46.5602C30.0439 47.5576 30.2645 48.559 30.5074 49.5656C30.5766 50.0016 30.5857 50.392 30.5335 50.7431C30.4108 51.5865 29.9408 52.1805 29.113 52.5252C28.3441 52.738 27.5947 52.9626 26.8727 53.195C26.1521 53.43 25.4523 53.6754 24.7813 53.9274C24.7747 53.93 24.7682 53.9326 24.7604 53.9352C23.3386 54.4809 21.7655 53.6284 21.4508 52.1388C21.0461 50.2275 20.8333 48.2456 20.8333 46.2155C20.8333 43.4347 21.2315 40.744 21.9757 38.2008L21.9783 38.1995Z" fill="#CCE4FF"/>
<path d="M71.4635 50.9259C71.5732 51.597 71.9361 52.0657 72.5615 52.3437C73.3017 52.5631 74.0145 52.7942 74.7026 53.0357C75.388 53.2746 76.0499 53.5253 76.6831 53.7864C76.7758 53.8229 76.8672 53.8621 76.9572 53.9013C77.6426 51.4534 78.0082 48.8762 78.0082 46.2142C78.0082 42.8342 77.4181 39.5899 76.3371 36.578C75.9481 36.4462 75.5551 36.3169 75.153 36.1929C74.0576 35.9853 73.4401 36.5049 73.2652 37.7804C73.2169 38.7726 73.1424 39.7675 73.0432 40.7649C72.9427 41.7623 72.8174 42.7637 72.6685 43.765C72.5184 44.7664 72.3461 45.7677 72.1489 46.7665C71.9505 47.7652 71.7312 48.7613 71.4883 49.7535C71.4165 50.1961 71.4074 50.5878 71.4622 50.9259H71.4635Z" fill="#CCE4FF"/>
<path d="M17.8136 25.3699L17.8789 25.4274L17.8567 25.6036C17.8266 25.8295 17.7822 25.9731 17.6634 26.2251C17.6191 26.3217 17.5616 26.4366 17.4911 26.5776C17.1125 27.2891 16.7626 28.0346 16.4493 28.7918C16.1399 29.5451 15.854 30.3401 15.6033 31.1496C15.3566 31.9538 15.1411 32.7946 14.9623 33.6471C14.7847 34.4996 14.6398 35.3861 14.5341 36.2947C14.3226 37.6238 13.9113 38.6016 13.2468 39.304C12.8199 39.6748 12.4217 40.0625 12.064 40.4555C12.0379 40.4829 12.0118 40.5116 11.9883 40.5403C12.8212 34.9983 14.8552 29.8519 17.8136 25.3699Z" fill="#CCE4FF"/>
</svg>
