<svg width="94" height="87" viewBox="0 0 94 87" fill="none" xmlns="http://www.w3.org/2000/svg">
<g clip-path="url(#clip0_4476_2939)">
<path d="M93.9335 40.1538C95.9119 65.196 75.0282 87 47.11 87C19.1918 87 -1.91173 64.9801 0.0667293 40.1538C2.04519 17.2705 22.9289 0 47.11 0C71.2912 0 91.955 17.2705 93.9335 40.1538Z" fill="#0049B2"/>
<path d="M50.4075 81.8189C48.6489 81.8189 47.1101 81.8189 45.5713 81.3872C59.4205 78.7966 70.1921 62.8214 70.1921 43.3921C70.1921 23.9628 59.4205 7.98766 45.5713 5.39709C47.1101 5.18121 48.8687 4.96533 50.4075 4.96533C70.8516 4.96533 87.3387 22.0199 87.3387 43.1762C87.3387 64.3326 70.8516 81.3872 50.4075 81.3872V81.8189Z" fill="#C1D3E9"/>
</g>
<defs>
<clipPath id="clip0_4476_2939">
<rect width="94" height="87" fill="white"/>
</clipPath>
</defs>
</svg>
